<?xml version="1.0" encoding="utf-8"?>
<!-- Generator: Adobe Illustrator 25.0.0, SVG Export Plug-In . SVG Version: 6.00 Build 0)  -->
<svg version="1.1" id="Camada_1" xmlns="http://www.w3.org/2000/svg" xmlns:xlink="http://www.w3.org/1999/xlink" x="0px" y="0px"
	 viewBox="0 0 500 500" style="enable-background:new 0 0 500 500;" xml:space="preserve">
<style type="text/css">
	.st0{fill:#FFFFFF;}
</style>
<g>
	<g>
		<path class="st0" d="M376.8,234c18.4,4.5,34.3,15.8,37.6,35.2l42.2-1.7c-3.8-42.7-33.4-66.3-68.1-74.3
			C386.2,207.1,382.4,220.9,376.8,234z"/>
		<path class="st0" d="M456.6,381.2c-8.9-47.2-58.5-57.8-98.7-62.8c-16.6-1.5-33.7-3.4-46.2-9.2c-14.2,8.2-30.4,14.2-48.3,17.6
			c18.9,24.8,54.9,30.9,87.2,34.2c29.3,2.9,59.5,6.7,63.4,29.1c0.7,3.8,0.9,7.2,0.7,10.1c-1.6,30.4-37,48-68.7,48
			c-27.4,0-60-14.4-61.5-41.7l-0.1,1.7l-0.1-6.3l-43,0.8v8c2.7,52.7,56.5,79.7,102,79.7c53.1,0,111.3-32.9,114.3-89.8
			C458,394.7,457.5,387.6,456.6,381.2z"/>
	</g>
	<path class="st0" d="M238.8,9.6H66.9l-3.6,68.5c0,0,68,0.1,68.5,0h103.4c57.1,0,83,44.3,80.6,89.3c-2.3,44.3-32.9,88.7-89.9,88.7
		H122.5H53.9L42.2,479.8h68.5l8.2-156.5h103.4c101.4,0,156.5-77.9,160.7-156.5S340.2,9.6,238.8,9.6z"/>
</g>
</svg>
